<svg xmlns="http://www.w3.org/2000/svg" width="1510" height="864"><path d="M0 .808h1510v799.92H0V.808z" fill-rule="evenodd" fill="#4c8eb4"/><path d="M1360.08 622.374l-3.53-6.106 8-4.617 3.64 6.3c1.11 1.92.99 4.065-.26 4.788l-3.34 1.925c-1.32.763-3.34-.262-4.51-2.29z" fill-rule="evenodd" fill="#a5a59f"/><path d="M1361.69 623.437l-3.53-6.106 8-4.616 3.64 6.298c1.11 1.92.99 4.065-.26 4.79l-3.34 1.923c-1.32.764-3.34-.26-4.51-2.288z" fill-rule="evenodd" fill="#0e0f0f"/><path d="M1356.55 616.268l-85.27-147.704.18-.11 3.58-1.934a.245.245 0 0 1 .24-.154l3.43-2.092.4-.236 85.28 147.705-7.84 4.525z" fill-rule="evenodd" fill="#a5a59f"/><path d="M1356.55 616.268l7.84-4.525-7.84 4.525z" fill-rule="evenodd" fill="#6b6a64"/><path d="M1271.26 448.335l100.55 174.156-8.75 5.05-100.55-174.155 8.75-5.05z" fill="none"/><path d="M1280.73 465.1L1366 612.806l-7.84 4.526-85.27-147.704 7.84-4.525z" fill-rule="evenodd" fill="#4a4a4a"/><path d="M1271.26 468.565l-5.69-16.59c-.06-.177.05-.397.26-.517l.01-.005c.28-.166.62-.152.8.032l12.29 12.652-.22.137-7.25 4.18-.2.11z" fill-rule="evenodd" fill="#4a4a4a" fill-opacity=".231"/><path d="M1271.46 468.455l7.25-4.18-3.43 2.09a.245.245 0 0 0-.24.155l-3.58 1.935z" fill-rule="evenodd" fill="#6b6a64"/><path d="M1280.54 465.2l-12.29-12.652c-.18-.185-.52-.198-.8-.033l-.01.005c-.21.12-.32.34-.26.516l5.69 16.59 3.78-2.043a.245.245 0 0 1 .24-.155l3.65-2.228z" fill-rule="evenodd" fill="#0e0f0f"/><path d="M1280.88 465.01l85.28 147.704-8.36 4.83-85.28-147.706 8.36-4.83z" fill-rule="evenodd" fill="#dfbd2b"/><path d="M1279.32 468.62l-1.17-2.032 2.73-1.58 85.28 147.706-2.73 1.578-84.11-145.673z" fill-rule="evenodd" fill="#d3b12f"/><path d="M1275.25 468.26l85.28 147.704-2.73 1.58-85.28-147.706 2.73-1.578z" fill-rule="evenodd" fill="#cdaa31"/><path d="M1280.88 465.03l-12.63-12.482c-.18-.182-.54-.183-.85-.003l-.01.005c-.23.13-.36.36-.3.538l5.45 16.758 3.09-.056a.337.337 0 0 0 .3-.203l.72-1.975c.03-.095.15-.17.26-.167l2.5.105c.17.007.35-.105.42-.254l1.05-2.267z" fill-rule="evenodd" fill="#bf9371"/><path d="M1280.63 465.33l-12.96-12.8c-.05-.053-.16-.054-.25-.002v.002c-.09.054.23-.074.25 0l5.7 16.877c.02.052.16.43-.36.432l2.56-.012c.12-.003.26-.094.3-.205l.67-1.808c.07-.193.3-.345.52-.337l2.33.086a.47.47 0 0 0 .42-.257l.84-1.83c.02-.055.02-.11-.02-.147z" fill-rule="evenodd" fill="#d5af8b"/><path d="M1270.01 454.244l-2.34-2.547c-.11-.118-.3-.137-.46-.046l-.38.225c-.17.095-.25.28-.19.434l1.08 2.928c.05.14.21.22.37.196.96-.14 1.53-.417 1.87-.72.15-.132.16-.34.05-.47z" fill-rule="evenodd" fill="#423e3a"/><path d="M1361.4 623.777l-3.4-5.89 8.36-4.83 3.51 6.076c1.07 1.855.87 3.97-.44 4.728l-3.48 2.013c-1.39.8-3.42-.14-4.55-2.096z" fill-rule="evenodd" fill="#c44b7c"/><path d="M1357.59 617.176l2.94-1.212 2.9-1.672 2.52-1.945 1.04 1.81-2.47 2.03-2.89 1.672-2.96 1.19-1.08-1.874z" fill-rule="evenodd" fill="#fff4e9"/><path d="M1364.52 616.188l2.47-2.032-1.04-1.808-2.52 1.944 1.09 1.896z" fill-rule="evenodd" fill="#fbe9da"/><path d="M1358.67 619.05l2.96-1.19-1.1-1.896-2.94 1.212 1.08 1.875z" fill-rule="evenodd" fill="#f4dcc9"/><path d="M1296.16 265.54l-121.35-452.887-554.398 148.55 60.675 226.444 60.676 226.444 554.397-148.55z" fill="none"/><path d="M1049.71 331.584c-.4.108-.82.08-1.2-.083l-4.08-1.718c-.45-.19-.95-.224-1.43-.097l-60.966 16.37 1.773-2.128a3.444 3.444 0 0 1 1.75-1.12l61.933-16.63c.47-.126.97-.09 1.43.098l4.07 1.72c.38.16.81.19 1.21.082l164.39-44.574c1.46-.393 2.84-.954 4.11-1.656a18.134 18.134 0 0 1-8.6 5.163l-164.38 44.573h-.01m-73.63 19.205l-164.858 44.174c-9.698 2.598-19.665-3.154-22.263-12.848l-72.82-271.77c-2.206-8.23 1.61-16.655 8.745-20.602-4.122 4.43-5.942 10.82-4.26 17.095l72.82 271.77c2.598 9.694 12.565 15.446 22.263 12.847l163.42-43.788-2.09 2.51c-.25.297-.584.512-.958.612z" fill-rule="evenodd" fill="#4a4a4a" fill-opacity=".686"/><path d="M1218.59 283.503l-164.39 44.573c-.4.11-.83.08-1.21-.082l-4.07-1.72c-.46-.188-.96-.223-1.43-.096l-61.933 16.628a3.444 3.444 0 0 0-1.75 1.12l-2.284 2.742a1.877 1.877 0 0 1-.958.613l-164.857 44.174c-9.698 2.6-19.665-3.153-22.263-12.847l-72.82-271.77c-2.598-9.694 3.158-19.66 12.856-22.258l402.88-107.953c9.7-2.598 19.67 3.154 22.27 12.848l72.82 271.77c2.59 9.694-3.16 19.66-12.86 22.258z" fill-rule="evenodd" fill="#dfe2dc"/><path d="M1079.89 305.66l-132.983 35.63a4.8 4.8 0 0 1-5.878-3.392l-25.208-94.074a4.8 4.8 0 0 1 3.394-5.876l132.984-35.63a4.788 4.788 0 0 1 5.87 3.39l25.21 94.074a4.794 4.794 0 0 1-3.39 5.878z" fill-rule="evenodd" fill="#d8dbd3"/><path d="M1079.89 305.66l-.02-.063-132.98 35.63a4.71 4.71 0 0 1-3.592-.472 4.713 4.713 0 0 1-2.205-2.874l-25.208-94.072a4.716 4.716 0 0 1 .473-3.59 4.715 4.715 0 0 1 2.875-2.206l132.977-35.632a4.72 4.72 0 0 1 3.59.472 4.728 4.728 0 0 1 2.21 2.873l25.21 94.074a4.694 4.694 0 0 1-.48 3.59 4.7 4.7 0 0 1-2.87 2.207l.03.126a4.857 4.857 0 0 0 3.44-5.958l-25.2-94.074a4.87 4.87 0 0 0-5.96-3.436l-132.98 35.63a4.864 4.864 0 0 0-3.44 5.957l25.206 94.075a4.865 4.865 0 0 0 5.958 3.44l132.976-35.632-.01-.063z" fill-rule="evenodd" fill="#7c7b77"/><path d="M1169.14 156.852L795.082 257.08a4.594 4.594 0 0 1-5.628-3.247L750.14 107.11c-.657-2.452.798-4.972 3.25-5.63L1127.45 1.254a4.585 4.585 0 0 1 5.62 3.248l39.32 146.726c.66 2.45-.8 4.97-3.25 5.626z" fill-rule="evenodd" fill="#fcfcfc"/><path d="M1169.14 156.852l-.02-.063-374.055 100.227a4.52 4.52 0 0 1-3.438-.452 4.51 4.51 0 0 1-2.11-2.75l-39.315-146.723a4.52 4.52 0 0 1 .453-3.437 4.515 4.515 0 0 1 2.75-2.11L1127.46 1.315a4.518 4.518 0 0 1 3.44.454 4.48 4.48 0 0 1 2.11 2.748l39.32 146.725a4.526 4.526 0 0 1-.46 3.435 4.51 4.51 0 0 1-2.75 2.11l.04.127a4.658 4.658 0 0 0 3.29-5.706L1133.14 4.483a4.662 4.662 0 0 0-5.71-3.294L753.372 101.418a4.66 4.66 0 0 0-3.296 5.708L789.39 253.85a4.66 4.66 0 0 0 5.71 3.294l374.06-100.23-.02-.062z" fill-rule="evenodd" fill="#c3c3bd"/><path d="M1146.73-25.296l-4.91 1.315a18.23 18.23 0 0 0-5.46.607L733.48 84.58a18.18 18.18 0 0 0-5.03 2.2l-5.6 1.502c-2.408.645-4.975-.17-6.6-2.094L624.174-26.555c-.715-.874-1.154-1.96-1.148-3.09.003-.618.124-1.143.337-1.595l13.947 16.756 533.67-142.997 4.68-16.866c.14.626.16 1.297.03 1.998L1151.86-30.84c-.52 2.692-2.51 4.84-5.13 5.544z" fill-rule="evenodd" fill="#a5a59f"/><path d="M1141.82-23.98L728.45 86.78a18.18 18.18 0 0 1 5.03-2.2l402.88-107.953a18.23 18.23 0 0 1 5.46-.608z" fill-rule="evenodd" fill="#8f9089"/><path d="M1147.15-28.798L723.267 84.782c-2.406.643-4.974-.172-6.6-2.096L624.593-30.057c-.714-.874-1.154-1.96-1.148-3.09.015-3.077 2.97-3.87 5.52-4.552l539.016-144.428c4.14-1.108 8.95 2.028 8.12 6.278l-23.82 141.507c-.52 2.693-2.51 4.842-5.13 5.545z" fill-rule="evenodd" fill="#dfe2dc"/><path d="M1150.61-37.167l-.13-.024c-.25 1.325-.69 2.966-1.4 4.354-.35.694-.77 1.326-1.26 1.822-.49.497-1.04.86-1.67 1.028L724.33 83.04a3.1 3.1 0 0 1-.168.048 6.9 6.9 0 0 1-1.376.22c-.606.034-1.3-.022-1.9-.3-.706-.32-1.342-.884-1.802-1.386a7.834 7.834 0 0 1-.548-.664 4.197 4.197 0 0 1-.19-.29l-.01-.017-.047.015.046-.013v-.003l-.047.015.046-.013-.106.03.11.01c0-.026-.003-.034-.004-.04l-.106.03.11.01-.127-.012.107.068a.123.123 0 0 0 .02-.057l-.127-.01.107.068-.108-.07.033.125c.03-.006.06-.03.075-.055l-.108-.07.033.125-.033-.12-.045.116c.013.003.036.013.078.003l-.033-.12-.045.116.034-.09-.06.075c.003 0 .005.005.027.014l.034-.09-.06.075.003-.004-.003.004.003-.003-.003.004c.004.003.02.02.04.046l.203-.167-91.292-110.3-.003-.003c-.93-.942-1.416-1.77-1.605-2.477a2.472 2.472 0 0 1-.017-1.31c.156-.575.53-1.043.98-1.4.453-.357.982-.598 1.43-.718l540.965-144.95c.9-.24 1.93-.188 2.82.26.9.447 1.66 1.284 2.02 2.65.38 1.406.33 3.374-.45 6.027v.008l-22.75 134.36.13.023-.13-.024.13.023.13.022 22.75-134.354-.13-.02.12.036c.79-2.684.85-4.698.46-6.167-.39-1.432-1.2-2.342-2.16-2.82-.96-.48-2.05-.532-3.01-.28L627.807-35.797c-.642.173-1.42.566-1.977 1.19-.28.313-.502.684-.618 1.113-.117.43-.126.914.017 1.446.205.767.72 1.63 1.67 2.594l.093-.092-.1.083L718.18 80.83l.203-.167a.958.958 0 0 0-.09-.093c-.008-.004-.017-.01-.032-.015-.014-.006-.04-.015-.083-.005a.137.137 0 0 0-.078.056c-.024.04-.022.065-.022.08a.17.17 0 0 0 .005.034c.01.03.018.047.03.072.048.088.147.237.294.43.442.58 1.308 1.538 2.37 2.025.66.302 1.39.358 2.023.324a7.15 7.15 0 0 0 1.43-.23c.05-.012.09-.023.12-.032.027-.007.048-.014.05-.015l421.82-113.026c.68-.183 1.28-.575 1.79-1.098.76-.785 1.35-1.86 1.8-2.99.44-1.13.74-2.315.92-3.323l.01-.003-.13-.02z" fill-rule="evenodd" fill="#2b2c29"/><path d="M1131.49-36.782L732.573 70.108 651.943-31.94l499.537-133.85-19.99 129.008z" fill-rule="evenodd" fill="#2b2c29"/><path d="M651.977-31.817l499.533-133.85-18.76 128.415-48.97 13.12-187.5-73.146L652.3-31.418l-.32-.4z" fill-rule="evenodd" fill="#383836"/><path d="M760.274 73.548l347.246-93.044 4.01 14.99-347.24 93.042-4.016-14.988z" fill-rule="evenodd" fill="#181a1a"/><path d="M762.23 80.845L1109.47-12.2l.95 3.55-347.24 93.045-.95-3.55z" fill-rule="evenodd" fill="#2a2c2c"/><path d="M779.628 112.634l-16.967 4.547a3.47 3.47 0 0 1-4.25-2.453l-1.27-4.732a3.474 3.474 0 0 1 2.456-4.253l16.968-4.546a3.47 3.47 0 0 1 4.252 2.455l1.268 4.733a3.47 3.47 0 0 1-2.456 4.25z" fill-rule="evenodd" fill="#111313"/><path d="M806.46 105.445l-16.967 4.546a3.47 3.47 0 0 1-4.252-2.453l-1.267-4.732a3.473 3.473 0 0 1 2.455-4.253l16.968-4.546a3.47 3.47 0 0 1 4.252 2.455l1.27 4.734a3.47 3.47 0 0 1-2.457 4.25z" fill-rule="evenodd" fill="#111313"/><path d="M833.293 98.255l-16.967 4.546a3.47 3.47 0 0 1-4.253-2.452l-1.268-4.733a3.472 3.472 0 0 1 2.456-4.252l16.968-4.547a3.472 3.472 0 0 1 4.253 2.455l1.27 4.734a3.47 3.47 0 0 1-2.457 4.25z" fill-rule="evenodd" fill="#111313"/><path d="M860.52 90.96l-16.967 4.546a3.472 3.472 0 0 1-4.253-2.454l-1.268-4.732a3.473 3.473 0 0 1 2.456-4.253l16.968-4.546a3.472 3.472 0 0 1 4.252 2.456l1.268 4.732a3.472 3.472 0 0 1-2.455 4.25z" fill-rule="evenodd" fill="#111313"/><path d="M886.563 83.98l-16.967 4.548a3.47 3.47 0 0 1-4.252-2.454l-1.268-4.733a3.472 3.472 0 0 1 2.455-4.25l16.968-4.547a3.473 3.473 0 0 1 4.253 2.455l1.27 4.732a3.47 3.47 0 0 1-2.457 4.25z" fill-rule="evenodd" fill="#111313"/><path d="M913.396 76.792l-16.968 4.546a3.47 3.47 0 0 1-4.252-2.454l-1.268-4.732a3.473 3.473 0 0 1 2.455-4.253l16.968-4.547a3.47 3.47 0 0 1 4.253 2.455l1.268 4.733a3.47 3.47 0 0 1-2.454 4.252z" fill-rule="evenodd" fill="#111313"/><path d="M940.228 69.602l-16.967 4.546a3.47 3.47 0 0 1-4.25-2.453l-1.27-4.733a3.472 3.472 0 0 1 2.456-4.252l16.967-4.547a3.473 3.473 0 0 1 4.254 2.455l1.268 4.732a3.472 3.472 0 0 1-2.457 4.252z" fill-rule="evenodd" fill="#111313"/><path d="M967.06 62.412l-16.967 4.547a3.47 3.47 0 0 1-4.252-2.455l-1.267-4.733a3.472 3.472 0 0 1 2.455-4.252l16.968-4.547a3.472 3.472 0 0 1 4.253 2.455l1.267 4.733a3.47 3.47 0 0 1-2.456 4.252z" fill-rule="evenodd" fill="#111313"/><path d="M993.5 55.328l-16.97 4.547a3.47 3.47 0 0 1-4.25-2.454l-1.27-4.732a3.47 3.47 0 0 1 2.456-4.252l16.968-4.547a3.473 3.473 0 0 1 4.253 2.454l1.268 4.733a3.472 3.472 0 0 1-2.456 4.25z" fill-rule="evenodd" fill="#111313"/><path d="M1020.33 48.138l-16.97 4.547a3.47 3.47 0 0 1-4.25-2.454l-1.267-4.73a3.473 3.473 0 0 1 2.457-4.254l16.97-4.547a3.472 3.472 0 0 1 4.25 2.455l1.27 4.732a3.48 3.48 0 0 1-2.46 4.25z" fill-rule="evenodd" fill="#111313"/><path d="M1047.56 40.843l-16.97 4.546a3.467 3.467 0 0 1-4.25-2.454l-1.27-4.733c-.5-1.852.6-3.756 2.46-4.252l16.96-4.546a3.478 3.478 0 0 1 4.26 2.455l1.26 4.732c.5 1.852-.6 3.755-2.45 4.25z" fill-rule="evenodd" fill="#111313"/><path d="M1074 33.76l-16.97 4.545c-1.85.497-3.76-.6-4.25-2.453l-1.27-4.733c-.5-1.853.6-3.757 2.45-4.254l16.97-4.546a3.468 3.468 0 0 1 4.25 2.455l1.27 4.733c.5 1.852-.6 3.755-2.45 4.25z" fill-rule="evenodd" fill="#111313"/><path d="M1100.43 26.675l-16.96 4.546a3.477 3.477 0 0 1-4.26-2.453l-1.26-4.732c-.5-1.852.6-3.756 2.45-4.252l16.97-4.547a3.468 3.468 0 0 1 4.25 2.455l1.27 4.734c.5 1.852-.6 3.754-2.46 4.25z" fill-rule="evenodd" fill="#111313"/><path d="M1127.27 19.485l-16.97 4.547a3.467 3.467 0 0 1-4.25-2.454l-1.27-4.733c-.5-1.852.6-3.756 2.45-4.252l16.97-4.547a3.468 3.468 0 0 1 4.25 2.456l1.27 4.732c.5 1.852-.6 3.755-2.45 4.25z" fill-rule="evenodd" fill="#111313"/><path d="M785.012 138.25l-15.784 4.228a3.267 3.267 0 0 1-4.002-2.31l-3.805-14.2a3.268 3.268 0 0 1 2.312-4l15.784-4.23a3.268 3.268 0 0 1 4.002 2.31l3.805 14.2a3.268 3.268 0 0 1-2.31 4z" fill-rule="evenodd" fill="#111313"/><path d="M914.92 186.656l-15.783 4.23a3.266 3.266 0 0 1-4.002-2.31l-3.804-14.2a3.266 3.266 0 0 1 2.31-4.002l15.785-4.23a3.268 3.268 0 0 1 4.002 2.31l3.805 14.2a3.268 3.268 0 0 1-2.31 4.002z" fill-rule="evenodd" fill="#111313"/><path d="M888.877 193.635l-15.782 4.23a3.27 3.27 0 0 1-4.004-2.312l-3.803-14.2a3.268 3.268 0 0 1 2.312-4l15.78-4.23a3.27 3.27 0 0 1 4.005 2.31l3.804 14.2a3.27 3.27 0 0 1-2.313 4.002z" fill-rule="evenodd" fill="#111313"/><path d="M863.23 200.507l-15.784 4.23a3.27 3.27 0 0 1-4.004-2.31l-3.804-14.2a3.27 3.27 0 0 1 2.312-4.003l15.784-4.23a3.268 3.268 0 0 1 4.002 2.312l3.804 14.2a3.268 3.268 0 0 1-2.31 4z" fill-rule="evenodd" fill="#111313"/><path d="M1101.11 109.71l-15.78 4.228a3.263 3.263 0 0 1-4-2.31l-3.81-14.2a3.276 3.276 0 0 1 2.31-4l15.79-4.23a3.268 3.268 0 0 1 4 2.31l3.8 14.2a3.26 3.26 0 0 1-2.31 4z" fill-rule="evenodd" fill="#111313"/><path d="M1075.07 116.687l-15.78 4.23a3.275 3.275 0 0 1-4.01-2.31l-3.8-14.2a3.268 3.268 0 0 1 2.31-4.002l15.78-4.23a3.274 3.274 0 0 1 4.01 2.31l3.8 14.2a3.267 3.267 0 0 1-2.31 4.002z" fill-rule="evenodd" fill="#111313"/><path d="M1049.42 123.56l-15.78 4.23a3.26 3.26 0 0 1-4-2.31l-3.81-14.2a3.27 3.27 0 0 1 2.31-4.003l15.79-4.23a3.268 3.268 0 0 1 4 2.312l3.8 14.198a3.26 3.26 0 0 1-2.31 4.002z" fill-rule="evenodd" fill="#111313"/><path d="M1023.38 130.538l-15.79 4.23a3.27 3.27 0 0 1-4-2.31l-3.802-14.2a3.263 3.263 0 0 1 2.312-4.002l15.78-4.23a3.26 3.26 0 0 1 4 2.31l3.81 14.2a3.268 3.268 0 0 1-2.31 4.002z" fill-rule="evenodd" fill="#111313"/><path d="M998.125 137.305l-15.785 4.23a3.268 3.268 0 0 1-4.002-2.31l-3.804-14.2a3.268 3.268 0 0 1 2.31-4.002l15.784-4.23a3.268 3.268 0 0 1 4.002 2.31l3.81 14.2a3.276 3.276 0 0 1-2.315 4.002z" fill-rule="evenodd" fill="#111313"/><path d="M971.292 144.495l-15.784 4.23a3.267 3.267 0 0 1-4.002-2.312l-3.805-14.2a3.268 3.268 0 0 1 2.312-4l15.784-4.23a3.267 3.267 0 0 1 4.002 2.31l3.805 14.2a3.268 3.268 0 0 1-2.31 4.002z" fill-rule="evenodd" fill="#111313"/><path d="M921.18 157.923l-15.785 4.23a3.267 3.267 0 0 1-4.002-2.312l-3.805-14.198a3.268 3.268 0 0 1 2.31-4.002l15.784-4.23a3.268 3.268 0 0 1 4.003 2.312l3.804 14.2a3.267 3.267 0 0 1-2.31 4z" fill-rule="evenodd" fill="#111313"/><path d="M895.136 164.9l-15.784 4.23a3.268 3.268 0 0 1-4.003-2.31l-3.806-14.2a3.27 3.27 0 0 1 2.312-4.002l15.784-4.23a3.267 3.267 0 0 1 4.002 2.312l3.804 14.2a3.267 3.267 0 0 1-2.31 4z" fill-rule="evenodd" fill="#111313"/><path d="M869.487 171.773l-15.784 4.23a3.268 3.268 0 0 1-4.002-2.31l-3.804-14.2a3.267 3.267 0 0 1 2.31-4.002l15.785-4.228a3.268 3.268 0 0 1 4.003 2.31l3.804 14.2a3.268 3.268 0 0 1-2.31 4z" fill-rule="evenodd" fill="#111313"/><path d="M843.443 178.752l-15.783 4.23a3.268 3.268 0 0 1-4.003-2.31l-3.805-14.2a3.27 3.27 0 0 1 2.312-4.003l15.783-4.23a3.268 3.268 0 0 1 4.003 2.31l3.805 14.2a3.27 3.27 0 0 1-2.312 4.002z" fill-rule="evenodd" fill="#111313"/><path d="M1139.52 70.74l-15.78 4.228a3.274 3.274 0 0 1-4.01-2.31l-3.8-14.2a3.266 3.266 0 0 1 2.31-4l15.78-4.23a3.274 3.274 0 0 1 4.01 2.31l3.8 14.2a3.267 3.267 0 0 1-2.31 4z" fill-rule="evenodd" fill="#111313"/><path d="M1113.87 77.61l-15.78 4.23a3.275 3.275 0 0 1-4.01-2.31l-3.8-14.2a3.266 3.266 0 0 1 2.31-4l15.78-4.23a3.273 3.273 0 0 1 4.01 2.31l3.8 14.2a3.267 3.267 0 0 1-2.31 4z" fill-rule="evenodd" fill="#111313"/><path d="M1088.22 84.484l-15.78 4.23a3.26 3.26 0 0 1-4-2.31l-3.81-14.2a3.267 3.267 0 0 1 2.31-4.002l15.79-4.23a3.267 3.267 0 0 1 4 2.31l3.8 14.2a3.26 3.26 0 0 1-2.31 4.002z" fill-rule="evenodd" fill="#111313"/><path d="M1062.57 91.356l-15.78 4.23a3.264 3.264 0 0 1-4-2.31l-3.81-14.2a3.274 3.274 0 0 1 2.31-4l15.79-4.23a3.268 3.268 0 0 1 4 2.31l3.8 14.2a3.26 3.26 0 0 1-2.31 4z" fill-rule="evenodd" fill="#111313"/><path d="M1036.92 98.23l-15.78 4.228a3.268 3.268 0 0 1-4-2.31l-3.81-14.2a3.274 3.274 0 0 1 2.31-4l15.79-4.23a3.267 3.267 0 0 1 4 2.31l3.81 14.2a3.273 3.273 0 0 1-2.32 4z" fill-rule="evenodd" fill="#111313"/><path d="M1010.88 105.207l-15.782 4.23a3.268 3.268 0 0 1-4.003-2.31l-3.805-14.2a3.267 3.267 0 0 1 2.312-4l15.788-4.23a3.268 3.268 0 0 1 4 2.31l3.8 14.2a3.267 3.267 0 0 1-2.31 4z" fill-rule="evenodd" fill="#111313"/><path d="M984.443 112.29l-15.783 4.23a3.267 3.267 0 0 1-4.002-2.31l-3.805-14.2a3.266 3.266 0 0 1 2.312-4l15.783-4.23a3.268 3.268 0 0 1 4.003 2.31l3.805 14.2a3.267 3.267 0 0 1-2.312 4z" fill-rule="evenodd" fill="#111313"/><path d="M959.19 119.058l-15.784 4.23a3.268 3.268 0 0 1-4.003-2.31l-3.805-14.2a3.27 3.27 0 0 1 2.313-4.002l15.785-4.23a3.266 3.266 0 0 1 4 2.31l3.806 14.2a3.268 3.268 0 0 1-2.31 4.002z" fill-rule="evenodd" fill="#111313"/><path d="M933.54 125.93l-15.783 4.23a3.266 3.266 0 0 1-4-2.31l-3.806-14.2a3.266 3.266 0 0 1 2.31-4l15.786-4.23a3.266 3.266 0 0 1 4 2.31l3.806 14.2a3.267 3.267 0 0 1-2.31 4z" fill-rule="evenodd" fill="#111313"/><path d="M907.497 132.91l-15.782 4.228a3.268 3.268 0 0 1-4.003-2.31l-3.805-14.2a3.267 3.267 0 0 1 2.312-4l15.782-4.23a3.268 3.268 0 0 1 4.003 2.31l3.805 14.2a3.27 3.27 0 0 1-2.313 4z" fill-rule="evenodd" fill="#111313"/><path d="M882.244 139.675l-15.784 4.23a3.268 3.268 0 0 1-4.003-2.31l-3.805-14.2a3.268 3.268 0 0 1 2.312-4l15.785-4.23a3.266 3.266 0 0 1 4 2.31l3.805 14.2a3.268 3.268 0 0 1-2.31 4z" fill-rule="evenodd" fill="#111313"/><path d="M856.595 146.548l-15.784 4.23a3.266 3.266 0 0 1-4-2.31l-3.805-14.2a3.264 3.264 0 0 1 2.31-4l15.784-4.23a3.268 3.268 0 0 1 4 2.31l3.806 14.2a3.268 3.268 0 0 1-2.31 4z" fill-rule="evenodd" fill="#111313"/><path d="M830.55 153.526l-15.78 4.23a3.267 3.267 0 0 1-4.004-2.31l-3.805-14.2a3.267 3.267 0 0 1 2.313-4l15.783-4.23a3.268 3.268 0 0 1 4.003 2.31l3.804 14.2a3.27 3.27 0 0 1-2.313 4z" fill-rule="evenodd" fill="#111313"/><path d="M1093.98 55.46l-15.78 4.23a3.274 3.274 0 0 1-4.01-2.31l-3.8-14.2a3.267 3.267 0 0 1 2.31-4l15.78-4.23a3.274 3.274 0 0 1 4.01 2.31l3.8 14.2a3.267 3.267 0 0 1-2.31 4z" fill-rule="evenodd" fill="#111313"/><path d="M1068.33 62.334l-15.78 4.23a3.274 3.274 0 0 1-4.01-2.31l-3.8-14.2a3.267 3.267 0 0 1 2.31-4l15.78-4.23a3.274 3.274 0 0 1 4.01 2.308l3.8 14.2a3.267 3.267 0 0 1-2.31 4.002z" fill-rule="evenodd" fill="#111313"/><path d="M1043.08 69.1l-15.79 4.23a3.268 3.268 0 0 1-4-2.31l-3.8-14.2a3.26 3.26 0 0 1 2.31-4l15.78-4.23a3.264 3.264 0 0 1 4 2.31l3.81 14.2a3.267 3.267 0 0 1-2.31 4z" fill-rule="evenodd" fill="#111313"/><path d="M1017.03 76.08l-15.78 4.228a3.267 3.267 0 0 1-4.002-2.31l-3.805-14.2a3.267 3.267 0 0 1 2.31-4l15.787-4.23a3.27 3.27 0 0 1 4 2.31l3.8 14.2a3.26 3.26 0 0 1-2.31 4z" fill-rule="evenodd" fill="#111313"/><path d="M991.384 82.95L975.6 87.18a3.267 3.267 0 0 1-4-2.31l-3.806-14.2a3.267 3.267 0 0 1 2.31-4l15.785-4.23a3.268 3.268 0 0 1 4.002 2.31l3.805 14.2a3.27 3.27 0 0 1-2.313 4z" fill-rule="evenodd" fill="#111313"/><path d="M964.947 90.035l-15.784 4.23a3.268 3.268 0 0 1-4.002-2.31l-3.804-14.2a3.267 3.267 0 0 1 2.31-4l15.785-4.23a3.267 3.267 0 0 1 4.003 2.31l3.805 14.2a3.267 3.267 0 0 1-2.31 4z" fill-rule="evenodd" fill="#111313"/><path d="M939.298 96.908l-15.784 4.23a3.268 3.268 0 0 1-4.002-2.31l-3.805-14.2a3.267 3.267 0 0 1 2.31-4l15.785-4.23a3.268 3.268 0 0 1 4.003 2.31l3.805 14.2a3.268 3.268 0 0 1-2.312 4z" fill-rule="evenodd" fill="#111313"/><path d="M913.65 103.78l-15.784 4.23a3.268 3.268 0 0 1-4.003-2.31l-3.805-14.2a3.268 3.268 0 0 1 2.312-4l15.784-4.23a3.268 3.268 0 0 1 4.002 2.31l3.805 14.2a3.267 3.267 0 0 1-2.31 4z" fill-rule="evenodd" fill="#111313"/><path d="M888 110.653l-15.783 4.23a3.268 3.268 0 0 1-4.002-2.31l-3.805-14.2a3.267 3.267 0 0 1 2.31-4l15.785-4.23a3.267 3.267 0 0 1 4.002 2.31l3.805 14.2a3.267 3.267 0 0 1-2.31 4z" fill-rule="evenodd" fill="#111313"/><path d="M862.352 117.526l-15.784 4.23a3.268 3.268 0 0 1-4.002-2.31l-3.805-14.2a3.268 3.268 0 0 1 2.312-4.002l15.784-4.23a3.268 3.268 0 0 1 4.003 2.31l3.804 14.2a3.27 3.27 0 0 1-2.312 4.002z" fill-rule="evenodd" fill="#111313"/><path d="M836.704 124.398l-15.784 4.23a3.268 3.268 0 0 1-4.003-2.31l-3.805-14.2a3.267 3.267 0 0 1 2.312-4l15.784-4.23a3.27 3.27 0 0 1 4.002 2.31l3.805 14.2a3.268 3.268 0 0 1-2.31 4z" fill-rule="evenodd" fill="#111313"/><path d="M810.66 131.376l-15.783 4.23a3.27 3.27 0 0 1-4.003-2.31l-3.805-14.2a3.268 3.268 0 0 1 2.31-4l15.784-4.23a3.268 3.268 0 0 1 4.003 2.31l3.805 14.2a3.267 3.267 0 0 1-2.312 4z" fill-rule="evenodd" fill="#111313"/><path d="M946.828 151.05l-15.784 4.23a3.266 3.266 0 0 1-4.002-2.31l-3.805-14.2a3.267 3.267 0 0 1 2.31-4.002l15.785-4.23a3.27 3.27 0 0 1 4.002 2.31l3.804 14.2a3.268 3.268 0 0 1-2.31 4.002z" fill-rule="evenodd" fill="#111313"/><path d="M1095.25 138.337l-15.78 4.23a3.274 3.274 0 0 1-4.01-2.31l-3.8-14.2a3.267 3.267 0 0 1 2.31-4.002l15.78-4.23a3.275 3.275 0 0 1 4.01 2.31l3.8 14.2a3.268 3.268 0 0 1-2.31 4.002z" fill-rule="evenodd" fill="#111313"/><path d="M1069.21 145.315l-15.79 4.23a3.267 3.267 0 0 1-4-2.31l-3.8-14.2a3.26 3.26 0 0 1 2.31-4.002l15.78-4.23a3.264 3.264 0 0 1 4 2.31l3.81 14.2a3.268 3.268 0 0 1-2.31 4.002z" fill-rule="evenodd" fill="#111313"/><path d="M1043.16 152.293l-15.78 4.23a3.27 3.27 0 0 1-4-2.31l-3.81-14.2a3.275 3.275 0 0 1 2.31-4.002l15.79-4.228a3.267 3.267 0 0 1 4 2.31l3.8 14.2a3.26 3.26 0 0 1-2.31 4z" fill-rule="evenodd" fill="#111313"/><path d="M1017.52 159.166l-15.79 4.23a3.267 3.267 0 0 1-4-2.31l-3.806-14.2a3.27 3.27 0 0 1 2.312-4.003l15.784-4.23a3.263 3.263 0 0 1 4 2.312l3.81 14.2a3.275 3.275 0 0 1-2.31 4z" fill-rule="evenodd" fill="#111313"/><path d="M991.867 166.038l-15.784 4.23a3.268 3.268 0 0 1-4.002-2.31l-3.803-14.2a3.267 3.267 0 0 1 2.31-4.002l15.784-4.23a3.268 3.268 0 0 1 4.003 2.31l3.805 14.2a3.267 3.267 0 0 1-2.31 4.002z" fill-rule="evenodd" fill="#111313"/><path d="M967.008 172.7l-15.784 4.23a3.268 3.268 0 0 1-4.002-2.312l-3.805-14.2a3.267 3.267 0 0 1 2.31-4l15.785-4.23a3.268 3.268 0 0 1 4.002 2.31l3.805 14.2a3.27 3.27 0 0 1-2.312 4.002z" fill-rule="evenodd" fill="#111313"/><path d="M940.57 179.784l-15.784 4.23a3.268 3.268 0 0 1-4.003-2.312l-3.804-14.2a3.267 3.267 0 0 1 2.31-4l15.783-4.23a3.268 3.268 0 0 1 4.003 2.31l3.805 14.2a3.27 3.27 0 0 1-2.31 4.002z" fill-rule="evenodd" fill="#111313"/><path d="M1027.2 188.82l-119.653 32.06a3.01 3.01 0 0 1-3.688-2.128l-4.784-17.85a3.012 3.012 0 0 1 2.13-3.687l119.654-32.062a3.01 3.01 0 0 1 3.69 2.13l4.78 17.848a3.01 3.01 0 0 1-2.13 3.69z" fill-rule="evenodd" fill="#111313"/><path d="M806.623 160.502l-30.516 8.177a2.452 2.452 0 0 1-3.002-1.734l-4.368-16.304a2.45 2.45 0 0 1 1.734-3l30.516-8.177a2.45 2.45 0 0 1 3 1.732l4.37 16.304a2.45 2.45 0 0 1-1.733 3.002z" fill-rule="evenodd" fill="#111313"/><path d="M819.7 185.396l-35.896 9.618c-1.274.34-2.59-.442-2.942-1.75l-4.368-16.303c-.35-1.306.4-2.64 1.674-2.983l35.896-9.618c1.274-.343 2.592.44 2.942 1.746l4.37 16.304c.35 1.307-.4 2.644-1.675 2.986z" fill-rule="evenodd" fill="#111313"/><path d="M839.058 206.843l-49.193 13.18a2.452 2.452 0 0 1-3.002-1.732l-4.157-15.513a2.452 2.452 0 0 1 1.734-3.002l49.192-13.18a2.452 2.452 0 0 1 3.002 1.732l4.157 15.514a2.452 2.452 0 0 1-1.732 3.003z" fill-rule="evenodd" fill="#111313"/><path d="M815.623 245.653l-17.625 4.722a2.45 2.45 0 0 1-3.002-1.732l-5.144-19.196a2.45 2.45 0 0 1 1.734-3l17.625-4.723a2.45 2.45 0 0 1 3.003 1.73l5.143 19.197a2.45 2.45 0 0 1-1.733 3.003z" fill-rule="evenodd" fill="#111313"/><path d="M867.315 231.802l-17.625 4.722a2.45 2.45 0 0 1-3.002-1.732l-5.144-19.196a2.45 2.45 0 0 1 1.734-3l17.626-4.723a2.45 2.45 0 0 1 3 1.732l5.144 19.196a2.45 2.45 0 0 1-1.733 3.002z" fill-rule="evenodd" fill="#111313"/><path d="M841.27 238.78l-17.624 4.723a2.45 2.45 0 0 1-3-1.733l-5.145-19.196a2.45 2.45 0 0 1 1.735-3l17.625-4.723a2.45 2.45 0 0 1 3 1.733l5.145 19.196a2.45 2.45 0 0 1-1.734 3z" fill-rule="evenodd" fill="#111313"/><path d="M899.277 223.238l-23.413 6.273a2.45 2.45 0 0 1-3-1.732l-5.144-19.196a2.45 2.45 0 0 1 1.732-3l23.413-6.273a2.45 2.45 0 0 1 3.002 1.73l5.144 19.196a2.452 2.452 0 0 1-1.733 3.002z" fill-rule="evenodd" fill="#111313"/><path d="M1134.32 44.65l-30.18 8.088a2.763 2.763 0 0 1-3.38-1.95l-4.07-15.18a2.762 2.762 0 0 1 1.96-3.38l30.18-8.088a2.763 2.763 0 0 1 3.38 1.95l4.07 15.18a2.762 2.762 0 0 1-1.96 3.38z" fill-rule="evenodd" fill="#111313"/><path d="M1147.11 97.385l-36.68 9.828c-1.51.405-3.06-.46-3.45-1.93l-4.07-15.182c-.4-1.47.51-2.993 2.02-3.4l36.68-9.826c1.51-.406 3.06.46 3.45 1.93l4.07 15.182c.4 1.47-.51 2.994-2.02 3.4z" fill-rule="evenodd" fill="#111313"/><path d="M1153.94 122.61l-49.51 13.268a2.76 2.76 0 0 1-3.38-1.95l-4.07-15.182a2.764 2.764 0 0 1 1.95-3.38l49.52-13.268c1.47-.394 2.98.48 3.38 1.95l4.07 15.182a2.762 2.762 0 0 1-1.96 3.38z" fill-rule="evenodd" fill="#111313"/><path d="M1058.17 180.308l-21.89 5.867a2.758 2.758 0 0 1-3.38-1.95l-4.81-17.942a2.765 2.765 0 0 1 1.95-3.38l21.9-5.867a2.76 2.76 0 0 1 3.38 1.95l4.81 17.944a2.76 2.76 0 0 1-1.96 3.378z" fill-rule="evenodd" fill="#111313"/><path d="M1085.01 173.12l-17.56 4.702a2.762 2.762 0 0 1-3.38-1.95l-4.8-17.942a2.75 2.75 0 0 1 1.95-3.38l17.55-4.703c1.47-.395 2.99.48 3.38 1.95l4.81 17.943a2.764 2.764 0 0 1-1.95 3.38z" fill-rule="evenodd" fill="#111313"/><path d="M1161.37 151.247l-16.31 4.37a2.72 2.72 0 0 1-3.33-1.923l-1.69-6.31a2.72 2.72 0 0 1 1.92-3.336l16.31-4.37c1.46-.39 2.95.472 3.34 1.925l1.69 6.31a2.718 2.718 0 0 1-1.93 3.334z" fill-rule="evenodd" fill="#111313"/><path d="M1109.94 165.028l-16.3 4.37c-1.46.39-2.95-.47-3.34-1.924l-1.69-6.31a2.72 2.72 0 0 1 1.92-3.336l16.31-4.37c1.46-.39 2.95.473 3.34 1.925l1.69 6.31a2.718 2.718 0 0 1-1.93 3.335z" fill-rule="evenodd" fill="#111313"/><path d="M1138.01 160.07l-19.73 5.285a1.36 1.36 0 0 1-1.67-.962l-5.92-22.09c-.19-.725.24-1.47.96-1.666l19.73-5.286a1.36 1.36 0 0 1 1.67.963l5.92 22.09c.19.725-.24 1.47-.96 1.666z" fill-rule="evenodd" fill="#111313"/><path d="M780.05 113.955l-16.968 4.546a3.472 3.472 0 0 1-4.252-2.452l-1.27-4.734a3.472 3.472 0 0 1 2.457-4.25l16.968-4.548a3.47 3.47 0 0 1 4.252 2.454l1.268 4.734a3.472 3.472 0 0 1-2.455 4.25z" fill-rule="evenodd" fill="#2d2f2e"/><path d="M806.883 106.765l-16.968 4.546a3.47 3.47 0 0 1-4.253-2.452l-1.268-4.734a3.47 3.47 0 0 1 2.456-4.25l16.968-4.548a3.472 3.472 0 0 1 4.252 2.454l1.268 4.734a3.472 3.472 0 0 1-2.455 4.25z" fill-rule="evenodd" fill="#2d2f2e"/><path d="M833.715 99.575l-16.97 4.547a3.473 3.473 0 0 1-4.25-2.454l-1.27-4.734a3.472 3.472 0 0 1 2.457-4.25l16.968-4.547a3.47 3.47 0 0 1 4.252 2.453l1.27 4.734a3.473 3.473 0 0 1-2.457 4.25z" fill-rule="evenodd" fill="#2d2f2e"/><path d="M860.94 92.28l-16.966 4.546a3.472 3.472 0 0 1-4.252-2.453l-1.27-4.734a3.472 3.472 0 0 1 2.457-4.252l16.966-4.547a3.47 3.47 0 0 1 4.253 2.455l1.268 4.734a3.472 3.472 0 0 1-2.457 4.25z" fill-rule="evenodd" fill="#2d2f2e"/><path d="M886.985 85.302l-16.967 4.546a3.473 3.473 0 0 1-4.254-2.454l-1.268-4.733a3.472 3.472 0 0 1 2.457-4.25l16.967-4.547a3.47 3.47 0 0 1 4.252 2.454l1.268 4.734a3.47 3.47 0 0 1-2.455 4.252z" fill-rule="evenodd" fill="#2d2f2e"/><path d="M913.817 78.112l-16.967 4.546a3.47 3.47 0 0 1-4.252-2.454l-1.268-4.733a3.47 3.47 0 0 1 2.455-4.25l16.967-4.547a3.47 3.47 0 0 1 4.252 2.454l1.27 4.734a3.47 3.47 0 0 1-2.457 4.252z" fill-rule="evenodd" fill="#2d2f2e"/><path d="M940.65 70.922l-16.968 4.547a3.472 3.472 0 0 1-4.252-2.455l-1.268-4.734a3.47 3.47 0 0 1 2.455-4.25l16.968-4.547a3.47 3.47 0 0 1 4.252 2.454l1.268 4.734a3.47 3.47 0 0 1-2.455 4.252z" fill-rule="evenodd" fill="#2d2f2e"/><path d="M967.482 63.732l-16.967 4.547a3.47 3.47 0 0 1-4.252-2.455l-1.27-4.734a3.47 3.47 0 0 1 2.457-4.25l16.967-4.546a3.47 3.47 0 0 1 4.252 2.454l1.268 4.733a3.472 3.472 0 0 1-2.456 4.252z" fill-rule="evenodd" fill="#2d2f2e"/><path d="M993.92 56.648l-16.968 4.547a3.472 3.472 0 0 1-4.252-2.454l-1.268-4.733a3.47 3.47 0 0 1 2.455-4.25l16.968-4.547a3.472 3.472 0 0 1 4.253 2.453l1.268 4.734a3.473 3.473 0 0 1-2.456 4.252z" fill-rule="evenodd" fill="#2d2f2e"/><path d="M1020.75 49.46l-16.97 4.545a3.468 3.468 0 0 1-4.247-2.454l-1.27-4.732a3.472 3.472 0 0 1 2.457-4.252l16.97-4.546a3.47 3.47 0 0 1 4.25 2.453l1.27 4.734a3.48 3.48 0 0 1-2.46 4.252z" fill-rule="evenodd" fill="#2d2f2e"/><path d="M1047.98 42.163l-16.97 4.547a3.472 3.472 0 0 1-4.25-2.454l-1.27-4.734a3.473 3.473 0 0 1 2.46-4.25l16.96-4.547a3.477 3.477 0 0 1 4.26 2.453l1.26 4.734c.5 1.85-.6 3.755-2.45 4.25z" fill-rule="evenodd" fill="#2d2f2e"/><path d="M1074.42 35.08l-16.97 4.546a3.468 3.468 0 0 1-4.25-2.454l-1.27-4.734c-.5-1.852.6-3.755 2.45-4.25l16.97-4.548a3.467 3.467 0 0 1 4.25 2.454l1.27 4.734c.5 1.85-.6 3.755-2.45 4.25z" fill-rule="evenodd" fill="#2d2f2e"/><path d="M1100.86 27.995l-16.97 4.546a3.483 3.483 0 0 1-4.26-2.452l-1.26-4.734c-.5-1.852.6-3.755 2.45-4.25l16.97-4.548a3.467 3.467 0 0 1 4.25 2.454l1.27 4.734c.5 1.85-.6 3.755-2.45 4.25z" fill-rule="evenodd" fill="#2d2f2e"/><path d="M1127.69 20.805l-16.97 4.547a3.468 3.468 0 0 1-4.25-2.454l-1.27-4.734c-.5-1.852.6-3.755 2.46-4.25l16.96-4.547a3.477 3.477 0 0 1 4.26 2.453l1.26 4.734c.5 1.85-.6 3.755-2.45 4.25z" fill-rule="evenodd" fill="#2d2f2e"/><path d="M785.433 139.57l-15.784 4.228a3.268 3.268 0 0 1-4.004-2.31l-3.804-14.2a3.267 3.267 0 0 1 2.31-4l15.785-4.23a3.268 3.268 0 0 1 4.002 2.31l3.804 14.2a3.268 3.268 0 0 1-2.31 4z" fill-rule="evenodd" fill="#2d2f2e"/><path d="M915.343 187.975l-15.784 4.23a3.267 3.267 0 0 1-4.004-2.31l-3.805-14.2a3.267 3.267 0 0 1 2.313-4l15.784-4.23a3.268 3.268 0 0 1 4.002 2.31l3.804 14.2a3.27 3.27 0 0 1-2.31 4z" fill-rule="evenodd" fill="#2d2f2e"/><path d="M889.3 194.953l-15.785 4.23a3.268 3.268 0 0 1-4.002-2.31l-3.805-14.2a3.268 3.268 0 0 1 2.31-4l15.785-4.23a3.267 3.267 0 0 1 4.002 2.31l3.805 14.2a3.266 3.266 0 0 1-2.31 4z" fill-rule="evenodd" fill="#2d2f2e"/><path d="M863.65 201.826l-15.783 4.23a3.268 3.268 0 0 1-4.003-2.31l-3.805-14.2a3.267 3.267 0 0 1 2.31-4l15.784-4.23a3.268 3.268 0 0 1 4.003 2.31l3.805 14.2a3.267 3.267 0 0 1-2.312 4z" fill-rule="evenodd" fill="#2d2f2e"/><path d="M1101.53 111.028l-15.78 4.23a3.27 3.27 0 0 1-4-2.31l-3.81-14.2a3.275 3.275 0 0 1 2.31-4l15.79-4.23a3.268 3.268 0 0 1 4 2.31l3.81 14.2a3.273 3.273 0 0 1-2.32 4z" fill-rule="evenodd" fill="#2d2f2e"/><path d="M1075.49 118.006l-15.78 4.23a3.26 3.26 0 0 1-4-2.31l-3.81-14.2a3.267 3.267 0 0 1 2.31-4l15.79-4.23a3.27 3.27 0 0 1 4 2.31l3.8 14.2a3.266 3.266 0 0 1-2.31 4z" fill-rule="evenodd" fill="#2d2f2e"/><path d="M1049.84 124.88l-15.78 4.228a3.264 3.264 0 0 1-4-2.31l-3.81-14.2a3.275 3.275 0 0 1 2.31-4l15.79-4.23a3.268 3.268 0 0 1 4 2.31l3.8 14.2a3.26 3.26 0 0 1-2.31 4z" fill-rule="evenodd" fill="#2d2f2e"/><path d="M1023.8 131.857l-15.78 4.23a3.273 3.273 0 0 1-4.01-2.31l-3.8-14.2a3.268 3.268 0 0 1 2.31-4l15.78-4.23a3.274 3.274 0 0 1 4.01 2.31l3.8 14.2a3.267 3.267 0 0 1-2.31 4z" fill-rule="evenodd" fill="#2d2f2e"/><path d="M998.546 138.624l-15.784 4.23a3.266 3.266 0 0 1-4.002-2.31l-3.805-14.2a3.267 3.267 0 0 1 2.31-4l15.785-4.23a3.268 3.268 0 0 1 4.002 2.31l3.808 14.2a3.274 3.274 0 0 1-2.314 4z" fill-rule="evenodd" fill="#2d2f2e"/><path d="M971.713 145.814l-15.784 4.23a3.266 3.266 0 0 1-4.002-2.31l-3.805-14.2a3.266 3.266 0 0 1 2.31-4l15.785-4.23a3.267 3.267 0 0 1 4 2.31l3.806 14.2a3.268 3.268 0 0 1-2.31 4z" fill-rule="evenodd" fill="#2d2f2e"/><path d="M921.6 159.242l-15.784 4.23a3.267 3.267 0 0 1-4.002-2.31l-3.805-14.2a3.267 3.267 0 0 1 2.31-4.002l15.784-4.23a3.268 3.268 0 0 1 4.002 2.31l3.805 14.2a3.27 3.27 0 0 1-2.31 4.002z" fill-rule="evenodd" fill="#2d2f2e"/><path d="M895.556 166.22l-15.784 4.23a3.268 3.268 0 0 1-4.002-2.31l-3.805-14.2a3.268 3.268 0 0 1 2.31-4l15.785-4.23a3.268 3.268 0 0 1 4.003 2.31l3.805 14.2a3.267 3.267 0 0 1-2.312 4z" fill-rule="evenodd" fill="#2d2f2e"/><path d="M869.908 173.092l-15.784 4.23a3.268 3.268 0 0 1-4.003-2.31l-3.804-14.2a3.268 3.268 0 0 1 2.312-4l15.784-4.23a3.268 3.268 0 0 1 4.002 2.31l3.805 14.2a3.266 3.266 0 0 1-2.312 4z" fill-rule="evenodd" fill="#2d2f2e"/><path d="M843.864 180.07l-15.784 4.23a3.268 3.268 0 0 1-4.002-2.31l-3.805-14.2a3.27 3.27 0 0 1 2.31-4l15.785-4.23a3.268 3.268 0 0 1 4.003 2.31l3.806 14.2a3.267 3.267 0 0 1-2.312 4z" fill-rule="evenodd" fill="#2d2f2e"/><path d="M1139.94 72.057l-15.78 4.23a3.273 3.273 0 0 1-4.01-2.31l-3.8-14.2a3.267 3.267 0 0 1 2.31-4l15.79-4.23a3.27 3.27 0 0 1 4 2.31l3.8 14.2a3.266 3.266 0 0 1-2.31 4z" fill-rule="evenodd" fill="#2d2f2e"/><path d="M1114.29 78.93l-15.78 4.23a3.258 3.258 0 0 1-4-2.31l-3.81-14.2a3.267 3.267 0 0 1 2.31-4l15.79-4.23a3.27 3.27 0 0 1 4 2.31l3.8 14.2a3.266 3.266 0 0 1-2.31 4z" fill-rule="evenodd" fill="#2d2f2e"/><path d="M1088.64 85.803l-15.78 4.23a3.263 3.263 0 0 1-4-2.31l-3.81-14.2a3.275 3.275 0 0 1 2.31-4l15.79-4.23a3.268 3.268 0 0 1 4 2.308l3.81 14.202a3.273 3.273 0 0 1-2.32 4z" fill-rule="evenodd" fill="#2d2f2e"/><path d="M1062.99 92.675l-15.78 4.23a3.267 3.267 0 0 1-4-2.31l-3.81-14.2a3.273 3.273 0 0 1 2.32-4l15.78-4.23a3.27 3.27 0 0 1 4 2.31l3.81 14.2a3.272 3.272 0 0 1-2.32 4z" fill-rule="evenodd" fill="#2d2f2e"/><g><path d="M1037.35 99.548l-15.79 4.23a3.268 3.268 0 0 1-4-2.31l-3.8-14.2a3.26 3.26 0 0 1 2.31-4l15.78-4.23a3.264 3.264 0 0 1 4 2.31l3.81 14.2a3.274 3.274 0 0 1-2.31 4z" fill-rule="evenodd" fill="#2d2f2e"/></g><g><path d="M1011.3 106.526l-15.78 4.23a3.268 3.268 0 0 1-4.004-2.31l-3.805-14.2a3.27 3.27 0 0 1 2.313-4l15.787-4.23a3.268 3.268 0 0 1 4 2.31l3.8 14.2a3.26 3.26 0 0 1-2.31 4z" fill-rule="evenodd" fill="#2d2f2e"/></g><g><path d="M984.865 113.61l-15.785 4.23a3.266 3.266 0 0 1-4-2.31l-3.806-14.2a3.267 3.267 0 0 1 2.31-4l15.785-4.23a3.266 3.266 0 0 1 4 2.31l3.805 14.2a3.265 3.265 0 0 1-2.31 4z" fill-rule="evenodd" fill="#2d2f2e"/></g><g><path d="M959.61 120.377l-15.784 4.23a3.266 3.266 0 0 1-4-2.31l-3.806-14.2a3.268 3.268 0 0 1 2.31-4l15.785-4.23a3.268 3.268 0 0 1 4.003 2.308l3.804 14.2a3.266 3.266 0 0 1-2.312 4.002z" fill-rule="evenodd" fill="#2d2f2e"/></g><g><path d="M933.963 127.25l-15.785 4.23a3.268 3.268 0 0 1-4.003-2.31l-3.804-14.2a3.267 3.267 0 0 1 2.313-4.002l15.784-4.23a3.267 3.267 0 0 1 4 2.31l3.806 14.2a3.266 3.266 0 0 1-2.31 4z" fill-rule="evenodd" fill="#2d2f2e"/></g><g><path d="M907.92 134.228l-15.785 4.23a3.267 3.267 0 0 1-4.002-2.31l-3.805-14.2a3.266 3.266 0 0 1 2.31-4l15.785-4.23a3.266 3.266 0 0 1 4 2.31l3.806 14.2a3.265 3.265 0 0 1-2.31 4z" fill-rule="evenodd" fill="#2d2f2e"/></g><g><path d="M882.664 140.995l-15.784 4.23a3.266 3.266 0 0 1-4-2.31l-3.806-14.2a3.268 3.268 0 0 1 2.31-4.002l15.785-4.23a3.27 3.27 0 0 1 4.002 2.31l3.804 14.2a3.267 3.267 0 0 1-2.312 4.002z" fill-rule="evenodd" fill="#2d2f2e"/></g><g><path d="M857.016 147.867l-15.784 4.23a3.268 3.268 0 0 1-4.003-2.31l-3.806-14.2a3.27 3.27 0 0 1 2.313-4l15.784-4.23a3.267 3.267 0 0 1 4.002 2.31l3.805 14.2a3.267 3.267 0 0 1-2.31 4z" fill-rule="evenodd" fill="#2d2f2e"/></g><g><path d="M830.973 154.845l-15.784 4.23a3.267 3.267 0 0 1-4.003-2.31l-3.805-14.2a3.268 3.268 0 0 1 2.31-4l15.785-4.23a3.267 3.267 0 0 1 4.002 2.31l3.804 14.2a3.265 3.265 0 0 1-2.31 4z" fill-rule="evenodd" fill="#2d2f2e"/></g><g><path d="M1094.4 56.78l-15.78 4.23a3.274 3.274 0 0 1-4.01-2.31l-3.8-14.2a3.268 3.268 0 0 1 2.31-4l15.78-4.23a3.274 3.274 0 0 1 4.01 2.31l3.8 14.2a3.267 3.267 0 0 1-2.31 4z" fill-rule="evenodd" fill="#2d2f2e"/></g><g><path d="M1068.75 63.654l-15.78 4.23a3.264 3.264 0 0 1-4-2.31l-3.81-14.2a3.267 3.267 0 0 1 2.31-4.002l15.79-4.23a3.268 3.268 0 0 1 4 2.31l3.8 14.2a3.26 3.26 0 0 1-2.31 4.002z" fill-rule="evenodd" fill="#2d2f2e"/></g><g><path d="M1043.5 70.42l-15.79 4.23a3.268 3.268 0 0 1-4-2.31l-3.8-14.2a3.26 3.26 0 0 1 2.31-4.002l15.78-4.23a3.26 3.26 0 0 1 4 2.312l3.81 14.2a3.268 3.268 0 0 1-2.31 4z" fill-rule="evenodd" fill="#2d2f2e"/></g><g><path d="M1017.46 77.4l-15.79 4.228a3.267 3.267 0 0 1-4.002-2.31l-3.805-14.2a3.268 3.268 0 0 1 2.312-4l15.785-4.23a3.268 3.268 0 0 1 4 2.31l3.81 14.2a3.275 3.275 0 0 1-2.31 4z" fill-rule="evenodd" fill="#2d2f2e"/></g><g><path d="M991.806 84.272l-15.784 4.23a3.268 3.268 0 0 1-4.002-2.312l-3.805-14.2a3.268 3.268 0 0 1 2.31-4l15.785-4.23a3.267 3.267 0 0 1 4.002 2.31l3.805 14.2a3.267 3.267 0 0 1-2.31 4.002z" fill-rule="evenodd" fill="#2d2f2e"/></g><g><path d="M965.368 91.356l-15.784 4.23a3.267 3.267 0 0 1-4.002-2.312l-3.804-14.2a3.267 3.267 0 0 1 2.31-4l15.784-4.23a3.268 3.268 0 0 1 4.002 2.31l3.805 14.2a3.268 3.268 0 0 1-2.312 4.002z" fill-rule="evenodd" fill="#2d2f2e"/></g><g><path d="M939.72 98.228l-15.785 4.23a3.27 3.27 0 0 1-4.002-2.31l-3.804-14.2a3.268 3.268 0 0 1 2.31-4.002l15.783-4.23a3.267 3.267 0 0 1 4.002 2.31l3.805 14.2a3.267 3.267 0 0 1-2.31 4.002z" fill-rule="evenodd" fill="#2d2f2e"/></g><g><path d="M914.07 105.1l-15.783 4.23a3.27 3.27 0 0 1-4.003-2.31l-3.805-14.2a3.268 3.268 0 0 1 2.31-4.002l15.784-4.23a3.268 3.268 0 0 1 4.003 2.31l3.805 14.2a3.27 3.27 0 0 1-2.312 4.003z" fill-rule="evenodd" fill="#2d2f2e"/></g><g><path d="M888.422 111.973l-15.784 4.23a3.268 3.268 0 0 1-4.002-2.31l-3.804-14.2a3.267 3.267 0 0 1 2.31-4.002l15.784-4.23a3.268 3.268 0 0 1 4.002 2.312l3.805 14.2a3.268 3.268 0 0 1-2.31 4z" fill-rule="evenodd" fill="#2d2f2e"/></g><g><path d="M862.773 118.846l-15.784 4.23a3.268 3.268 0 0 1-4.003-2.31l-3.804-14.2a3.268 3.268 0 0 1 2.31-4.003l15.784-4.23a3.267 3.267 0 0 1 4.002 2.312l3.804 14.2a3.267 3.267 0 0 1-2.31 4z" fill-rule="evenodd" fill="#2d2f2e"/></g><g><path d="M837.124 125.718l-15.783 4.23a3.268 3.268 0 0 1-4.002-2.31l-3.804-14.2a3.267 3.267 0 0 1 2.31-4.002l15.784-4.23a3.27 3.27 0 0 1 4.004 2.31l3.804 14.2a3.268 3.268 0 0 1-2.312 4.002z" fill-rule="evenodd" fill="#2d2f2e"/></g><g><path d="M811.082 132.697l-15.784 4.23a3.268 3.268 0 0 1-4.003-2.312l-3.804-14.2a3.267 3.267 0 0 1 2.312-4l15.783-4.23a3.27 3.27 0 0 1 4.003 2.31l3.804 14.2a3.267 3.267 0 0 1-2.31 4.002z" fill-rule="evenodd" fill="#2d2f2e"/></g><g><path d="M947.248 152.37l-15.783 4.228a3.268 3.268 0 0 1-4.003-2.31l-3.805-14.2a3.267 3.267 0 0 1 2.312-4l15.782-4.23a3.268 3.268 0 0 1 4.003 2.31l3.805 14.2a3.267 3.267 0 0 1-2.312 4z" fill-rule="evenodd" fill="#2d2f2e"/></g><g><path d="M1095.67 139.656l-15.78 4.23a3.26 3.26 0 0 1-4-2.31l-3.81-14.2a3.267 3.267 0 0 1 2.31-4l15.79-4.23a3.27 3.27 0 0 1 4 2.31l3.8 14.2a3.267 3.267 0 0 1-2.31 4z" fill-rule="evenodd" fill="#2d2f2e"/></g><g><path d="M1069.63 146.634l-15.78 4.23a3.273 3.273 0 0 1-4.01-2.31l-3.8-14.2a3.267 3.267 0 0 1 2.31-4l15.78-4.23a3.274 3.274 0 0 1 4.01 2.31l3.8 14.2a3.267 3.267 0 0 1-2.31 4z" fill-rule="evenodd" fill="#2d2f2e"/></g><g><path d="M1043.59 153.612l-15.79 4.23a3.27 3.27 0 0 1-4-2.31l-3.81-14.2a3.273 3.273 0 0 1 2.32-4l15.78-4.23a3.268 3.268 0 0 1 4 2.31l3.81 14.2a3.274 3.274 0 0 1-2.31 4z" fill-rule="evenodd" fill="#2d2f2e"/></g><g><path d="M1017.94 160.485l-15.79 4.23a3.265 3.265 0 0 1-4-2.31l-3.804-14.2a3.268 3.268 0 0 1 2.31-4l15.784-4.23a3.263 3.263 0 0 1 4 2.31l3.81 14.2a3.267 3.267 0 0 1-2.31 4z" fill-rule="evenodd" fill="#2d2f2e"/></g><g><path d="M992.29 167.357l-15.785 4.23a3.268 3.268 0 0 1-4.003-2.31l-3.805-14.2a3.268 3.268 0 0 1 2.312-4l15.783-4.23a3.268 3.268 0 0 1 4.002 2.31l3.805 14.2a3.268 3.268 0 0 1-2.31 4z" fill-rule="evenodd" fill="#2d2f2e"/></g><g><path d="M967.428 174.02l-15.783 4.228a3.268 3.268 0 0 1-4.003-2.31l-3.805-14.2a3.27 3.27 0 0 1 2.312-4l15.782-4.23a3.268 3.268 0 0 1 4.003 2.31l3.805 14.2a3.267 3.267 0 0 1-2.312 4z" fill-rule="evenodd" fill="#2d2f2e"/></g><g><path d="M940.99 181.103l-15.784 4.23a3.267 3.267 0 0 1-4-2.31l-3.806-14.2a3.266 3.266 0 0 1 2.31-4l15.785-4.23a3.268 3.268 0 0 1 4.003 2.308l3.805 14.202a3.27 3.27 0 0 1-2.313 4z" fill-rule="evenodd" fill="#2d2f2e"/></g><g><path d="M1027.62 190.138L907.967 222.2a3.01 3.01 0 0 1-3.687-2.13l-4.783-17.848a3.012 3.012 0 0 1 2.13-3.687l119.653-32.06a3.01 3.01 0 0 1 3.69 2.126l4.78 17.85a3.01 3.01 0 0 1-2.13 3.688z" fill-rule="evenodd" fill="#2d2f2e"/></g><g><path d="M807.044 161.82L776.528 170a2.452 2.452 0 0 1-3.002-1.733l-4.368-16.303a2.45 2.45 0 0 1 1.733-3l30.517-8.178a2.45 2.45 0 0 1 3 1.733l4.37 16.303a2.45 2.45 0 0 1-1.733 3z" fill-rule="evenodd" fill="#2d2f2e"/></g><g><path d="M820.122 186.715l-35.897 9.618c-1.274.342-2.59-.44-2.942-1.75l-4.368-16.3c-.35-1.308.4-2.645 1.673-2.987l35.897-9.618c1.274-.342 2.59.442 2.94 1.75l4.37 16.3c.35 1.31-.4 2.645-1.673 2.987z" fill-rule="evenodd" fill="#2d2f2e"/></g><g><path d="M839.48 208.162l-49.194 13.18a2.45 2.45 0 0 1-3.002-1.732l-4.157-15.513a2.45 2.45 0 0 1 1.734-3l49.194-13.183a2.452 2.452 0 0 1 3.002 1.733l4.157 15.513a2.452 2.452 0 0 1-1.734 3.002z" fill-rule="evenodd" fill="#2d2f2e"/></g><g><path d="M816.044 246.973l-17.625 4.723a2.45 2.45 0 0 1-3.003-1.733l-5.143-19.196a2.45 2.45 0 0 1 1.733-3l17.625-4.724a2.452 2.452 0 0 1 3.002 1.732l5.144 19.197a2.452 2.452 0 0 1-1.734 3z" fill-rule="evenodd" fill="#2d2f2e"/></g><g><path d="M867.736 233.122l-17.625 4.723a2.45 2.45 0 0 1-3-1.733l-5.144-19.196a2.45 2.45 0 0 1 1.733-3l17.623-4.724a2.452 2.452 0 0 1 3.003 1.733l5.143 19.196a2.45 2.45 0 0 1-1.734 3.002z" fill-rule="evenodd" fill="#2d2f2e"/></g><g><path d="M841.693 240.1l-17.625 4.723a2.45 2.45 0 0 1-3.002-1.733l-5.144-19.196a2.45 2.45 0 0 1 1.734-3l17.625-4.724a2.452 2.452 0 0 1 3.003 1.733l5.143 19.196a2.45 2.45 0 0 1-1.733 3z" fill-rule="evenodd" fill="#2d2f2e"/></g><g><path d="M899.698 224.558l-23.412 6.273a2.45 2.45 0 0 1-3.002-1.73l-5.144-19.197a2.452 2.452 0 0 1 1.734-3.002l23.412-6.272a2.452 2.452 0 0 1 3.003 1.732l5.142 19.196a2.452 2.452 0 0 1-1.734 3.002z" fill-rule="evenodd" fill="#2d2f2e"/></g><g><path d="M1134.75 45.97l-30.19 8.088a2.763 2.763 0 0 1-3.38-1.95l-4.06-15.182c-.4-1.47.48-2.985 1.95-3.38l30.18-8.087c1.47-.395 2.98.48 3.38 1.95l4.07 15.18a2.764 2.764 0 0 1-1.95 3.38z" fill-rule="evenodd" fill="#2d2f2e"/></g><g><path d="M1147.53 98.704l-36.68 9.828c-1.51.405-3.06-.46-3.45-1.93l-4.07-15.18c-.39-1.474.51-2.995 2.02-3.4l36.68-9.828c1.52-.406 3.06.46 3.46 1.93l4.06 15.182c.4 1.47-.51 2.993-2.02 3.398z" fill-rule="evenodd" fill="#2d2f2e"/></g><g><path d="M1154.36 123.93l-49.51 13.267a2.758 2.758 0 0 1-3.38-1.95l-4.07-15.18a2.764 2.764 0 0 1 1.95-3.38l49.52-13.268a2.757 2.757 0 0 1 3.38 1.95l4.07 15.18a2.762 2.762 0 0 1-1.96 3.38z" fill-rule="evenodd" fill="#2d2f2e"/></g><g><path d="M1058.6 181.63l-21.9 5.865a2.762 2.762 0 0 1-3.38-1.95l-4.81-17.942a2.763 2.763 0 0 1 1.96-3.38l21.89-5.866a2.757 2.757 0 0 1 3.38 1.95l4.81 17.942a2.765 2.765 0 0 1-1.95 3.38z" fill-rule="evenodd" fill="#2d2f2e"/></g><g><path d="M1085.43 174.44l-17.55 4.702a2.768 2.768 0 0 1-3.39-1.95l-4.8-17.942a2.757 2.757 0 0 1 1.95-3.38l17.55-4.703a2.753 2.753 0 0 1 3.38 1.95l4.81 17.942a2.756 2.756 0 0 1-1.95 3.38z" fill-rule="evenodd" fill="#2d2f2e"/></g><g><path d="M1161.79 152.568l-16.3 4.37a2.726 2.726 0 0 1-3.34-1.925l-1.69-6.31a2.72 2.72 0 0 1 1.92-3.335l16.31-4.37c1.46-.39 2.95.47 3.34 1.924l1.69 6.31a2.72 2.72 0 0 1-1.93 3.336z" fill-rule="evenodd" fill="#2d2f2e"/></g><g><path d="M1110.37 166.348l-16.31 4.37a2.724 2.724 0 0 1-3.34-1.925l-1.69-6.31a2.72 2.72 0 0 1 1.93-3.335l16.31-4.37c1.45-.39 2.94.47 3.33 1.924l1.69 6.31a2.72 2.72 0 0 1-1.92 3.336z" fill-rule="evenodd" fill="#2d2f2e"/></g><g><path d="M1133.38 145.95l-18.15 4.863a1.768 1.768 0 0 1-2.17-1.25l-1.83-6.838a1.76 1.76 0 0 1 1.25-2.168l18.15-4.863c.94-.253 1.91.307 2.17 1.25l1.83 6.838c.25.944-.31 1.914-1.25 2.168z" fill-rule="evenodd" fill="#2d2f2e"/></g><g><path d="M1137.04 159.624l-18.15 4.863a1.777 1.777 0 0 1-2.17-1.252l-1.83-6.836a1.775 1.775 0 0 1 1.25-2.17l18.15-4.862c.95-.253 1.92.307 2.17 1.25l1.83 6.837a1.76 1.76 0 0 1-1.25 2.17z" fill-rule="evenodd" fill="#2d2f2e"/></g><g><path d="M993.893 521.343l248.857-43.88 60.42 342.657L1054.31 864" fill="none"/></g><g><path d="M1063.06 859.828c-4.98.878-9.78-2.745-10.72-8.093l-56.25-317.878c-.687-3.89 1.69-7.56 5.31-8.2l214.75-38 .01-.002c12.23-2.155 24.02 6.74 26.34 19.875l50.56 285.72c2.45 13.86-6.02 26.947-18.92 29.23l-211.07 37.348h-.01z" fill-rule="evenodd" fill="#4a4a4a" fill-opacity=".69"/></g><g><path d="M1278.96 819.32l-211.07 37.347c-4.98.88-9.79-2.742-10.73-8.092l-56.25-317.878c-.69-3.89 1.69-7.56 5.31-8.2l214.75-38c12.23-2.163 24.03 6.734 26.35 19.872l50.56 285.72c2.45 13.86-6.02 26.946-18.92 29.23z" fill-rule="evenodd" fill="#3d3e3c"/></g><g><path d="M1046.38 789.724l243.81-42.99.47 2.69-243.81 42.99-.47-2.69z" fill-rule="evenodd" fill="#2f302e"/></g><g><path d="M1015.72 520.815l10.06-1.774 59.01 334.647-10.07 1.775-59-334.647z" fill-rule="evenodd" fill="#2f312f"/></g><g><path d="M1256.25 823.336l-16.75 2.966-59.21-334.607 16.76-2.965 59.2 334.606z" fill-rule="evenodd" fill="#2f312f"/></g><g><path d="M1027.65 683.527l243.81-42.99 18.73 106.197-243.81 42.99-18.73-106.197z" fill-rule="evenodd" fill="#ed983e"/></g><g><path d="M993.893 521.343l248.857-43.88 60.42 342.657L1054.31 864" fill="none"/></g><g><path d="M1272.06 643.938l-244.42 39.59 243.82-42.992.6 3.402z" fill-rule="evenodd" fill="#f4bb81"/></g><g><path d="M1260.26 827.387l-13.08 2.313a2.065 2.065 0 0 1-2.39-1.676l-59.88-338.432a1.898 1.898 0 0 1 1.53-2.193l12.09-2.14a2.863 2.863 0 0 1 3.31 2.32l59.78 337.86c.16.914-.45 1.784-1.36 1.947z" fill-rule="evenodd" fill="#545754"/></g><g><path d="M1190.59 486.918l61.43 342.18.15-.027-61.44-342.18" fill-rule="evenodd" fill="#1c1e1e"/></g><g><path d="M1194.6 485.955l62.09 342.064.14-.027-62.08-342.065" fill-rule="evenodd" fill="#1c1e1e"/></g><g><path d="M1186.99 487.51l61.76 342.206.15-.028-61.76-342.204" fill-rule="evenodd" fill="#1c1e1e"/></g><g><path d="M1198.64 485.754l61.55 341.646.15-.026-61.55-341.646" fill-rule="evenodd" fill="#1c1e1e"/></g><g><path d="M1208.57 651.626l4.62-.815 18.73 106.2-4.62.813-18.73-106.197z" fill-rule="evenodd" fill="#e8852c"/></g><g><path d="M1043.26 717.244l6.17 35.017a.85.85 0 0 0 .99.693l45.22-7.975c.47-.08.77-.522.69-.987l-6.17-35c-.1-.588-.69-.962-1.26-.808l-22.03 5.864-22.71 2.023a.998.998 0 0 0-.9 1.174z" fill-rule="evenodd" fill="#3d3e3c"/></g><g><path d="M1044.98 716.23l6.06 34.38c.08.454.49.762.92.687l41.67-7.348c.43-.076.71-.506.63-.96l-6.06-34.364c-.1-.58-.65-.95-1.18-.807l-20.27 5.52-20.95 1.75c-.54.043-.92.572-.82 1.14z" fill-rule="evenodd" fill="#d3d4ce"/></g><g><path d="M1072.17 747.753l.59-.105-6.04-34.303-.61.04 6.06 34.368z" fill-rule="evenodd" fill="#a6a6a1"/></g><g><path d="M1065.2 713.47s-.8 7.764 4.21 11.93c.96.8 1.71 1.76 2.52 2.71 2.26 2.648 4.61 9.217 1.44 13.252 0 0-4.17 4.472-1.99 9.973 0 0 .8-7.197 2.36-9.42 0 0 3.97-7.316-.36-13.885-.83-1.26-2.11-2.104-3.18-3.167-1.15-1.135-3.59-3.736-4.13-11.47l-.87.076z" fill-rule="evenodd" fill="#7e7e79"/></g><g><path d="M1248.31 189.817h228.83v219.977h-228.83" fill="none"/></g><g><path d="M1355.55 409.667c-59.24 0-107.07-47.105-107.26-105.212-.18-55.73 48.01-105.086 107.26-105.212h.23c59.13 0 107.02 47.18 107.02 105.212 0 58.107-48.02 105.212-107.25 105.212z" fill-rule="evenodd" fill="#4a4a4a" fill-opacity=".69"/></g><g><path d="M1472.26 299.814c0 58.107-48.02 105.212-107.25 105.212-59.24 0-107.06-47.106-107.25-105.212-.19-55.73 48.01-105.086 107.25-105.212 59.23-.126 107.25 47.105 107.25 105.212z" fill-rule="evenodd" fill="#0e0f0f"/></g><g><path d="M1477.14 299.814c.49 60.746-50.2 109.994-112.13 109.994-61.93 0-112.13-49.246-112.13-109.994s50.2-109.605 112.13-109.994c61.73-.388 111.63 48.256 112.13 109.994z" fill-rule="evenodd" fill="#fff"/></g><g><path d="M1472.26 299.814c0 58.107-48.02 105.212-107.25 105.212-59.24 0-107.06-47.106-107.25-105.212-.19-55.73 48.01-105.086 107.25-105.212 59.23-.126 107.25 47.105 107.25 105.212z" fill-rule="evenodd" fill="#f8f2ec"/></g><g><path d="M1435.72 303.39c0 41.732-34.49 75.562-77.03 75.562s-77.03-33.83-77.03-75.56c0-41.733 34.49-75.562 77.03-75.562s77.03 33.83 77.03 75.56z" fill-rule="evenodd" fill="#d4cabc"/></g><g><path d="M1408.14 368.662l19.81 22.19 10.67-7.825-22.88-26.382-12.49 8.763.84.357c1.55.66 2.94 1.65 4.05 2.897z" fill-rule="evenodd" fill="#d4cabc"/></g><g><path d="M1442.04 299.814c0 41.73-34.49 75.56-77.03 75.56s-77.03-33.83-77.03-75.56c0-41.73 34.49-75.56 77.03-75.56s77.03 33.83 77.03 75.56z" fill-rule="evenodd" fill="#fff"/></g><g><path d="M1436.67 299.814c0 38.826-32.08 70.3-71.66 70.3s-71.67-31.474-71.67-70.3c0-38.826 32.09-70.3 71.67-70.3s71.66 31.474 71.66 70.3z" fill-rule="evenodd" fill="#ecebe5"/></g><g><path d="M1433.26 299.814c0 36.977-30.56 66.953-68.25 66.953-37.7 0-68.25-29.976-68.25-66.953 0-36.977 30.55-66.953 68.25-66.953 37.69 0 68.25 29.977 68.25 66.954z" fill-rule="evenodd" fill="#b97331"/></g><g><path d="M1451.12 382.013l-7.02 6.637c-3.19 3.013-8.26 2.922-11.33-.203l-25.31-25.572 1.91-1.27a67.495 67.495 0 0 0 16.73-15.754l1.54-2.05 23.71 25.88a8.616 8.616 0 0 1-.23 12.333z" fill-rule="evenodd" fill="#ecebe5"/></g><g><path d="M1445.46 380.59l-3.85 3.635c-1.91 1.81-5.89.803-8.89-2.246l-14.67-14.928c-2.32-2.367-3.01-5.425-1.52-6.83l4.71-4.458c1.32-1.245 4.06-.553 6.12 1.546l16.69 16.98c2.15 2.184 2.78 5.005 1.41 6.3z" fill-rule="evenodd" fill="#f7f5f2"/></g><g><path d="M1449.09 377.005l-1.83 1.73c-.92.863-4.11-.932-7.13-4.008l-14.8-15.055c-2.34-2.388-3.67-4.866-2.97-5.535l2.25-2.124c.63-.594 2.82.642 4.9 2.76l16.84 17.125c2.16 2.203 3.39 4.49 2.74 5.107z" fill-rule="evenodd" fill="#fff"/></g><g><path d="M1363.23 295.26c0 3.16-1.87 5.72-4.16 5.72-2.3 0-4.16-2.56-4.16-5.72 0-3.158 1.86-5.718 4.16-5.718 2.29 0 4.16 2.56 4.16 5.72z" fill-rule="evenodd" fill="#f0c293"/></g><g><path d="M1405.95 252.01c10.51 10.894 43.83 52.043-.82 97.96-1.02 1.05-1.64 2.443-1.58 3.893.08 1.835-.53 3.668-4.59-.63 0 0-6.69-9.864-13.29.924-5.52 9.012-6.42 9.097-7.39 6.42-.69-1.923-2.36-3.427-4.43-3.65a8.038 8.038 0 0 0-1.74.005c-2 .216-3.77-.82-4.99-2.385-.13-.17-.31-.308-.53-.404-1.16-.5-1.96-1.57-2.54-2.68-2.71-5.156-10.16-15.577-23.33-7.254-1.59 1-3.57 1.137-5.26.33-2.25-1.073-5.32-1.933-6.56.466 0 0-.45.273-1.18.642-4.06 2.058-8.65-1.312-8.02-5.75.4-2.873-.04-6.178-3.48-7.837-1.52-.733-2.68-2-3.13-3.6-.59-2.114-2.18-4.598-6.42-4.124-1.23.137-2.48-.095-3.53-.738-2.58-1.575-6.21-4.878-1.44-9.224 0 0 11.52-6.367 4.26-13.225-2.49-2.355-2.4-6.354.4-8.352.31-.225.65-.45 1.02-.676.79-.48 1.47-1.1 1.94-1.882 1-1.67 2.18-4.682.11-7.588-1.84-2.576-.8-6.226 2.02-7.725.26-.137.53-.275.82-.413 1.34-.648 2.41-1.788 2.84-3.19.51-1.647.73-3.884-.65-5.894-1.32-1.91-1.21-4.446.22-6.275 7.71-9.848 30.53-33.854 62.37-21.855.22.084.43.178.65.286 1.17.596 5.35 2.75 8.19 4.674a5.495 5.495 0 0 1 2.16 2.803c.41 1.224 1.08 2.992 1.97 4.66 1.57 2.964 5.45 3.95 8.19 1.965.23-.17.48-.34.74-.51 2.21-1.442 5.18-1.056 7 .832z" fill-rule="evenodd" fill="#c78732"/></g><g><path d="M1359.07 279.928s7.05-1.3 12.79 3.388c5.35 4.374 6.63 11.878 3.9 18.162-2.47 5.672-8.08 11.367-20.85 7.78 0 0 12.26 4.787 21.36-2.733 8.6-7.11 6.27-20.554-4.14-24.738-3.44-1.384-7.75-2.215-13.06-1.86z" fill-rule="evenodd" fill="#f0c293"/></g><g><path d="M1346.48 285.078s6.34-7.478 17.04-9.296c14.58-2.477 28.23 8.81 26.73 23.247-.32 3.084-1.34 6.33-3.44 9.573-4.21 6.483-11.58 10.237-19.39 10.79-11.36.807-29.12-1.71-37.19-22.9 0 0 8.25 29.073 34.65 30.91 11.38.792 22.55-4.534 28.26-14.217.26-.434.51-.88.74-1.335 9.34-17.764-5.48-38.454-25.8-37.107-7.01.465-14.72 3.12-21.6 10.335z" fill-rule="evenodd" fill="#f0c293"/></g><g><path d="M1336.25 286.035c.69.524 1.6.477 2.47.2 1.76-.554 3.02-2.012 3.63-3.718 2.15-6.067 8.65-12.94 20.88-13.38 0 0 32.44-3.227 40.02 26.124 0 0 4.34 10.86-4.12 32.22.01-.017 11.22-10.38 11.32-26.615.09-14.11-8.82-26.586-21.69-32.884-2.26-1.103-4.68-2.042-7.23-2.67 0 0 18.14 1.485 28.92 14.452 0 0-14.85-20.83-42.23-20.827 0 0-22.75-.552-32.72 19.39-1.35 2.684-1.67 5.887.75 7.71z" fill-rule="evenodd" fill="#f0c293"/></g><g><path d="M1395.6 307.726s-26.37 38.088-56.92 10.032c0 0 1.3 5.957 7.8 10.63 0 0-2.84.926-6.25-3.298 0 0 2.01 4.778 8.58 8.56 10.26 5.91 23.38 5.29 32.78-1.874 5.43-4.14 12.24-12.72 14.01-24.05z" fill-rule="evenodd" fill="#f0c293"/></g><g><path d="M1324.06 256.225c0 .44-.51.797-1.14.797-.63 0-1.14-.357-1.14-.797 0-.44.51-.797 1.14-.797.63 0 1.14.356 1.14.797z" fill-rule="evenodd" fill="#9b502c"/></g><g><path d="M1369.36 287.23c0 .44-.51.797-1.14.797-.63 0-1.14-.356-1.14-.797 0-.44.51-.797 1.14-.797.63 0 1.14.357 1.14.797z" fill-rule="evenodd" fill="#9b502c"/></g><g><path d="M1426.72 284.042c0 .44-.5.797-1.13.797-.63 0-1.14-.358-1.14-.798 0-.44.51-.797 1.14-.797.63 0 1.13.357 1.13.797z" fill-rule="evenodd" fill="#9b502c"/></g><g><path d="M1424.45 317.28c0 .44-.51.796-1.14.796-.63 0-1.14-.356-1.14-.797 0-.44.51-.798 1.14-.798.63 0 1.14.357 1.14.797z" fill-rule="evenodd" fill="#9b502c"/></g><g><path d="M1304.56 306.132c0 .44-.51.797-1.14.797-.63 0-1.14-.358-1.14-.798 0-.44.51-.797 1.14-.797.63 0 1.14.356 1.14.797z" fill-rule="evenodd" fill="#9b502c"/></g><g><path d="M1351.36 355.145c0 .44-.51.797-1.14.797-.63 0-1.14-.356-1.14-.797 0-.44.51-.797 1.14-.797.63 0 1.14.357 1.14.797z" fill-rule="evenodd" fill="#9b502c"/></g><g><path d="M1349.08 346.452c0 .44-.51.797-1.13.797-.63 0-1.14-.358-1.14-.798 0-.44.51-.797 1.14-.797.62 0 1.13.357 1.13.797z" fill-rule="evenodd" fill="#9b502c"/></g><g><path d="M1416.88 259.73c0 .44-.51.797-1.14.797-.63 0-1.14-.357-1.14-.797 0-.44.51-.797 1.14-.797.63 0 1.14.357 1.14.797z" fill-rule="evenodd" fill="#9b502c"/></g><g><path d="M1360.2 277.107c0 .44-.51.798-1.13.798-.63 0-1.14-.357-1.14-.798 0-.44.51-.796 1.14-.796.62 0 1.13.357 1.13.797z" fill-rule="evenodd" fill="#9b502c"/></g><g><path d="M1342.1 284.84c0 .44-.51.796-1.14.796-.63 0-1.14-.357-1.14-.797 0-.44.51-.798 1.14-.798.63 0 1.14.357 1.14.797z" fill-rule="evenodd" fill="#9b502c"/></g><g><path d="M1347.95 316.482c0 .44-.51.797-1.14.797-.63 0-1.14-.358-1.14-.798 0-.44.51-.797 1.14-.797.63 0 1.14.357 1.14.797z" fill-rule="evenodd" fill="#9b502c"/></g><g><path d="M1405.39 307.726c0 .44-.51.797-1.14.797-.62 0-1.13-.357-1.13-.797 0-.44.51-.797 1.13-.797.63 0 1.14.356 1.14.796z" fill-rule="evenodd" fill="#9b502c"/></g><g><path d="M1407.67 335.27c0 .44-.51.797-1.14.797-.63 0-1.14-.357-1.14-.797 0-.44.51-.798 1.14-.798.63 0 1.14.357 1.14.798z" fill-rule="evenodd" fill="#9b502c"/></g><g><path d="M1401.82 351.067c0 .44-.51.797-1.14.797-.63 0-1.14-.357-1.14-.797 0-.44.51-.797 1.14-.797.63 0 1.14.357 1.14.797z" fill-rule="evenodd" fill="#9b502c"/></g><g><path d="M1394.46 338.458c0 .44-.51.797-1.14.797-.63 0-1.14-.357-1.14-.797 0-.44.51-.797 1.14-.797.63 0 1.14.358 1.14.798z" fill-rule="evenodd" fill="#9b502c"/></g><g><path d="M1382.67 343.8c0 .44-.51.796-1.14.796-.63 0-1.14-.357-1.14-.797 0-.44.51-.798 1.14-.798.63 0 1.14.357 1.14.797z" fill-rule="evenodd" fill="#9b502c"/></g><g><path d="M1395.6 330.67c0 .44-.51.797-1.14.797-.63 0-1.14-.357-1.14-.797 0-.44.51-.797 1.14-.797.63 0 1.14.357 1.14.797z" fill-rule="evenodd" fill="#9b502c"/></g><g><path d="M1406.53 284.84c0 .44-.51.796-1.14.796-.63 0-1.14-.357-1.14-.797 0-.44.51-.798 1.14-.798.63 0 1.14.357 1.14.797z" fill-rule="evenodd" fill="#9b502c"/></g><g><path d="M1381.53 296.058c0 .44-.51.797-1.14.797-.62 0-1.13-.356-1.13-.797 0-.44.51-.797 1.13-.797.63 0 1.14.358 1.14.798z" fill-rule="evenodd" fill="#9b502c"/></g><g><path d="M1364.72 336.067c0 .44-.51.797-1.14.797-.63 0-1.14-.357-1.14-.797 0-.44.51-.797 1.14-.797.63 0 1.14.357 1.14.797z" fill-rule="evenodd" fill="#9b502c"/></g><g><path d="M1336.73 337.66c0 .44-.51.798-1.13.798-.63 0-1.14-.357-1.14-.797 0-.44.51-.796 1.14-.796.62 0 1.13.357 1.13.797z" fill-rule="evenodd" fill="#9b502c"/></g><g><path d="M1339.82 351.067c0 .44-.51.797-1.14.797-.62 0-1.13-.357-1.13-.797 0-.44.51-.797 1.13-.797.63 0 1.14.357 1.14.797z" fill-rule="evenodd" fill="#9b502c"/></g><g><path d="M1320.4 317.28c0 .44-.51.796-1.14.796-.62 0-1.13-.356-1.13-.797 0-.44.51-.798 1.13-.798.63 0 1.14.357 1.14.797z" fill-rule="evenodd" fill="#9b502c"/></g><g><path d="M1309.68 286.433c0 .44-.51.797-1.14.797-.63 0-1.14-.357-1.14-.797 0-.44.51-.797 1.14-.797.63 0 1.14.357 1.14.797z" fill-rule="evenodd" fill="#9b502c"/></g><g><path d="M1331.37 279.762c0 .44-.51.797-1.14.797-.63 0-1.13-.357-1.13-.798 0-.44.5-.797 1.13-.797.63 0 1.14.357 1.14.797z" fill-rule="evenodd" fill="#9b502c"/></g><g><path d="M1390.44 249.05c0 .44-.51.798-1.14.798-.62 0-1.13-.357-1.13-.797 0-.44.51-.796 1.13-.796.63 0 1.14.357 1.14.797z" fill-rule="evenodd" fill="#9b502c"/></g><g><path d="M1388.17 241.878c0 .44-.51.797-1.14.797-.63 0-1.14-.357-1.14-.797 0-.44.51-.798 1.14-.798.63 0 1.14.357 1.14.798z" fill-rule="evenodd" fill="#9b502c"/></g><g><path d="M1368.28 254.63c0 .44-.51.798-1.14.798-.63 0-1.14-.357-1.14-.797 0-.44.51-.797 1.14-.797.63 0 1.14.357 1.14.798z" fill-rule="evenodd" fill="#9b502c"/></g><g><path d="M1361.43 240.283c0 .44-.51.797-1.13.797-.63 0-1.14-.356-1.14-.797 0-.44.51-.797 1.14-.797.62 0 1.13.357 1.13.797z" fill-rule="evenodd" fill="#9b502c"/></g><g><path d="M1349.08 249.848c0 .44-.51.797-1.13.797-.63 0-1.14-.357-1.14-.797 0-.44.51-.797 1.14-.797.62 0 1.13.358 1.13.798z" fill-rule="evenodd" fill="#9b502c"/></g><g><path d="M1350.22 263.876c0 .44-.51.798-1.14.798-.62 0-1.13-.357-1.13-.798 0-.44.51-.797 1.13-.797.63 0 1.14.356 1.14.796z" fill-rule="evenodd" fill="#9b502c"/></g><g><path d="M1331.37 257.82c0 .44-.51.796-1.14.796-.63 0-1.13-.357-1.13-.797 0-.442.5-.798 1.13-.798.63 0 1.14.356 1.14.797z" fill-rule="evenodd" fill="#9b502c"/></g><g><path d="M1330.23 249.848c0 .44-.51.797-1.13.797-.63 0-1.14-.357-1.14-.797 0-.44.51-.797 1.14-.797.62 0 1.13.358 1.13.798z" fill-rule="evenodd" fill="#9b502c"/></g><g><path d="M1364.37 288.824c0 .44-.51.797-1.14.797-.63 0-1.14-.355-1.14-.796 0-.44.51-.797 1.14-.797.63 0 1.14.357 1.14.797z" fill-rule="evenodd" fill="#9b502c"/></g><g><path d="M1360.13 306.706c-.23.377-.85.426-1.39.11-.54-.318-.79-.88-.56-1.258.23-.378.86-.427 1.4-.11.54.317.79.88.55 1.258z" fill-rule="evenodd" fill="#9b502c"/></g><g><path d="M1373.59 293.207c0 .44-.51.797-1.14.797-.62 0-1.13-.357-1.13-.797 0-.44.51-.797 1.13-.797.63 0 1.14.357 1.14.797z" fill-rule="evenodd" fill="#9b502c"/></g><g><path d="M1354.91 290.34c0 .44-.51.796-1.14.796-.63 0-1.14-.357-1.14-.797 0-.44.51-.798 1.14-.798.63 0 1.14.357 1.14.797z" fill-rule="evenodd" fill="#9b502c"/></g><g><path d="M1368.22 303.39c0 .44-.51.798-1.14.798-.63 0-1.14-.357-1.14-.797 0-.44.51-.796 1.14-.796.63 0 1.14.357 1.14.797z" fill-rule="evenodd" fill="#9b502c"/></g><g><path d="M1359.83 293.207c0 .44-.51.797-1.14.797-.63 0-1.14-.357-1.14-.797 0-.44.51-.797 1.14-.797.63 0 1.14.357 1.14.797z" fill-rule="evenodd" fill="#9b502c"/></g><g><path d="M1368.13 298.062c0 .44-.51.797-1.14.797-.63 0-1.14-.358-1.14-.798 0-.44.51-.797 1.14-.797.63 0 1.14.357 1.14.797z" fill-rule="evenodd" fill="#9b502c"/></g><g><path d="M1397.88 288.027c0 .44-.51.797-1.14.797-.63 0-1.14-.357-1.14-.797 0-.44.51-.797 1.14-.797.63 0 1.14.357 1.14.797z" fill-rule="evenodd" fill="#9b502c"/></g><g><path d="M1373.59 266.586c0 .44-.51.797-1.14.797-.62 0-1.13-.357-1.13-.797 0-.44.51-.797 1.13-.797.63 0 1.14.356 1.14.796z" fill-rule="evenodd" fill="#9b502c"/></g><g><path d="M1342.1 279.762c0 .44-.51.797-1.14.797-.63 0-1.14-.357-1.14-.798 0-.44.51-.797 1.14-.797.63 0 1.14.357 1.14.797z" fill-rule="evenodd" fill="#9b502c"/></g><g><path d="M1350.22 301.338c0 .44-.51.797-1.14.797-.62 0-1.13-.357-1.13-.797 0-.44.51-.797 1.13-.797.63 0 1.14.358 1.14.798z" fill-rule="evenodd" fill="#9b502c"/></g><g><path d="M1366.99 280.56c0 .44-.51.796-1.14.796-.62 0-1.13-.356-1.13-.797 0-.44.51-.798 1.13-.798.63 0 1.14.357 1.14.797z" fill-rule="evenodd" fill="#9b502c"/></g><g><path d="M1378.12 303.39c0 .44-.51.798-1.14.798-.63 0-1.14-.357-1.14-.797 0-.44.51-.796 1.14-.796.63 0 1.14.357 1.14.797z" fill-rule="evenodd" fill="#9b502c"/></g><g><path d="M1354.91 316.482c0 .44-.51.797-1.14.797-.63 0-1.14-.358-1.14-.798 0-.44.51-.797 1.14-.797.63 0 1.14.357 1.14.797z" fill-rule="evenodd" fill="#9b502c"/></g><g><path d="M1339.82 321.663c0 .44-.51.797-1.14.797-.62 0-1.13-.357-1.13-.797 0-.44.51-.797 1.13-.797.63 0 1.14.357 1.14.797z" fill-rule="evenodd" fill="#9b502c"/></g><g><path d="M1422.07 310.76c0 .44-.5.797-1.13.797-.63 0-1.14-.357-1.14-.797 0-.44.51-.797 1.14-.797.63 0 1.13.357 1.13.797z" fill-rule="evenodd" fill="#9b502c"/></g><g><path d="M1303.42 286.433c0 .44-.51.797-1.14.797-.63 0-1.14-.357-1.14-.797 0-.44.51-.797 1.14-.797.63 0 1.14.357 1.14.797z" fill-rule="evenodd" fill="#9b502c"/></g><g><path d="M1331.37 303.39c0 .44-.51.798-1.14.798-.63 0-1.13-.357-1.13-.797 0-.44.5-.796 1.13-.796.63 0 1.14.357 1.14.797z" fill-rule="evenodd" fill="#9b502c"/></g><g><path d="M1405.39 276.31c0 .44-.51.797-1.14.797-.62 0-1.13-.356-1.13-.796 0-.44.51-.797 1.13-.797.63 0 1.14.357 1.14.798z" fill-rule="evenodd" fill="#9b502c"/></g><g><path d="M1383.81 306.132c0 .44-.51.797-1.14.797-.63 0-1.14-.358-1.14-.798 0-.44.51-.797 1.14-.797.63 0 1.14.356 1.14.797z" fill-rule="evenodd" fill="#9b502c"/></g><g><path d="M1346.81 298.86c0 .44-.51.796-1.14.796-.63 0-1.14-.357-1.14-.797 0-.44.51-.798 1.14-.798.63 0 1.14.357 1.14.797z" fill-rule="evenodd" fill="#9b502c"/></g><g><path d="M1373.59 260.527c0 .44-.51.797-1.14.797-.62 0-1.13-.357-1.13-.797 0-.44.51-.797 1.13-.797.63 0 1.14.357 1.14.797z" fill-rule="evenodd" fill="#9b502c"/></g><g><path d="M1384.94 320.866c0 .44-.5.797-1.13.797-.63 0-1.14-.357-1.14-.797 0-.44.51-.797 1.14-.797.63 0 1.13.356 1.13.796z" fill-rule="evenodd" fill="#9b502c"/></g><g><path d="M1373.59 327.48c0 .44-.51.798-1.14.798-.62 0-1.13-.357-1.13-.797 0-.44.51-.796 1.13-.796.63 0 1.14.357 1.14.797z" fill-rule="evenodd" fill="#9b502c"/></g><g><path d="M1365.85 318.076c0 .44-.5.797-1.13.797-.63 0-1.14-.356-1.14-.797 0-.44.51-.797 1.14-.797.63 0 1.13.356 1.13.796z" fill-rule="evenodd" fill="#9b502c"/></g><g><path d="M1379.26 272.086c0 .44-.51.797-1.14.797-.63 0-1.14-.357-1.14-.797 0-.44.51-.797 1.14-.797.63 0 1.14.356 1.14.796z" fill-rule="evenodd" fill="#9b502c"/></g></svg>